# xmcd
#
# Track frame offsets: 
#        150
#        22037
#        38729
#        73140
#        88298
#        103632
#        128676
#        150659
#        177173
#
# Disc length: 2617 seconds
#
# Revision: 2
# Processed by: cddbd v1.5.2PL0 Copyright (c) Steve Scherf et al.
# Submitted via: ExactAudioCopyFreeDBPlugin 1.0
#
DISCID=730a3709
DTITLE=Breakout - NOL
DYEAR=1976
DGENRE=Blues
TTITLE0=Taki wiatr
TTITLE1=Słuchaj rytmu
TTITLE2=W pochodzie codzienności
TTITLE3=Biel
TTITLE4=Chciałabym być słońcem
TTITLE5=Gdzie mnie wiodą
TTITLE6=Co to za człowiek
TTITLE7=Zabierz smutek
TTITLE8=Na naszej drodze
EXTD=
EXTT0=
EXTT1=
EXTT2=
EXTT3=
EXTT4=
EXTT5=
EXTT6=
EXTT7=
EXTT8=
PLAYORDER=
